<svg xmlns="http://www.w3.org/2000/svg" viewBox="0 0 128 128" width="128" height="128" role="img" aria-label="brgr">
  <title>brgr</title>
  <!-- lettuce: straight under the bun, wavy below -->
  <path d="M12 54 L116 54 L116 62 Q110 70 102 63 Q94 70 86 63 Q78 70 70 63 Q62 70 54 63 Q46 70 38 63 Q30 70 22 63 Q16 68 12 62 Z" fill="#6CC04A" stroke="#2F6B1E" stroke-width="3" stroke-linejoin="round"/>
  <!-- top bun -->
  <path d="M16 58 C16 30 38 16 64 16 C90 16 112 30 112 58 Z" fill="#F2A541" stroke="#7A4A12" stroke-width="3" stroke-linejoin="round"/>
  <path d="M26 47 C30 33 44 25 58 23" fill="none" stroke="#FFD08A" stroke-width="4" stroke-linecap="round"/>
  <g fill="#FFF4DC" stroke="#7A4A12" stroke-width="1.2">
    <ellipse cx="46" cy="35" rx="3.2" ry="1.9" transform="rotate(-20 46 35)"/>
    <ellipse cx="64" cy="29" rx="3.2" ry="1.9"/>
    <ellipse cx="82" cy="35" rx="3.2" ry="1.9" transform="rotate(20 82 35)"/>
    <ellipse cx="56" cy="45" rx="3.2" ry="1.9" transform="rotate(-10 56 45)"/>
    <ellipse cx="74" cy="45" rx="3.2" ry="1.9" transform="rotate(10 74 45)"/>
    <ellipse cx="92" cy="48" rx="3.2" ry="1.9" transform="rotate(25 92 48)"/>
    <ellipse cx="36" cy="48" rx="3.2" ry="1.9" transform="rotate(-25 36 48)"/>
  </g>
  <!-- patty -->
  <rect x="14" y="68" width="100" height="17" rx="8.5" fill="#6B3B1F" stroke="#3A1E0D" stroke-width="3"/>
  <path d="M30 78 h10 M52 81 h12 M76 78 h10" stroke="#8E5532" stroke-width="2.5" stroke-linecap="round"/>
  <!-- cheese, over the patty so its drips show -->
  <path d="M16 66 L112 66 L112 72 L98 72 L91 81 L84 72 L48 72 L41 80 L34 72 L16 72 Z" fill="#FFD23F" stroke="#9A6A00" stroke-width="3" stroke-linejoin="round"/>
  <!-- bottom bun -->
  <path d="M16 88 L112 88 L112 96 C112 103 107 108 100 108 L28 108 C21 108 16 103 16 96 Z" fill="#E8973A" stroke="#7A4A12" stroke-width="3" stroke-linejoin="round"/>
</svg>
